[Header]
FileType HTR
DataType HTRS
FileVersion 1
NumSegments 22
NumFrames 4
DataFrameRate 24
EulerRotationOrder ZYX
CalibrationUnits mm
RotationUnits Degrees
GlobalAxisofGravity Y
BoneLengthAxis Y
ScaleFactor 1.0
[SegmentNames&Hierarchy]
reference	GLOBAL
Hips	reference
Spine	Hips
Spine1	Spine
Neck	Spine1
Head	Neck
LeftShoulder	Spine1
LeftArm	LeftShoulder
LeftForeArm	LeftArm
LeftHand	LeftForeArm
RightShoulder	Spine1
RightArm	RightShoulder
RightForeArm	RightArm
RightHand	RightForeArm
LeftUpLeg	Hips
LeftLeg	LeftUpLeg
LeftFoot	LeftLeg
LeftToeBase	LeftFoot
RightUpLeg	Hips
RightLeg	RightUpLeg
RightFoot	RightLeg
RightToeBase	RightFoot
[BasePosition]
reference	0	0	0	0	0	0	1
Hips	0	0	0	0	0	0	1
Spine	0	0	0	0	-0	90	1
Spine1	0	0	0	0	0	0	1
Neck	0	0	0	-7.352327771	-7.352327771	90	1
Head	0	0	0	0	-0	90	1
LeftShoulder	0	0	0	0	0	0	1
LeftArm	0	0	0	0	0	0	1
LeftForeArm	0	0	0	0	0	0	1
LeftHand	0	0	0	0	0	0	1
RightShoulder	0	0	0	0	-0	180	1
RightArm	0	0	0	0	-0	180	1
RightForeArm	0	0	0	0	-0	180	1
RightHand	0	0	0	0	-0	180	1
LeftUpLeg	0	0	0	0	-0	-90	1
LeftLeg	0	0	0	0	-0	-90	1
LeftFoot	0	0	0	66.57146043	-66.57146043	-90	1
LeftToeBase	0	0	0	0	-90	0	1
RightUpLeg	0	0	0	0	-0	-90	1
RightLeg	0	0	0	0	-0	-90	1
RightFoot	0	0	0	66.57146043	-66.57146043	-90	1
RightToeBase	0	0	0	0	-90	0	1
[reference]
58	0	0	0	0	-0	0	1.0
59	0	0	0	0	-0	0	1.0
60	0	0	0	0	-0	0	1.0
61	0	0	0	0	-0	0	1.0
[Hips]
58	-0.3823727965	8.476299286	4.23250246	180.0818176	-154.3567047	-185.2517548	1.0
59	-0.5090736747	8.418759346	4.505150318	180.7995453	-154.4311523	-185.9448242	1.0
60	-0.6286376715	8.383071899	4.821190357	180.8717041	-154.479187	-186.3245544	1.0
61	-0.744680047	8.35970974	5.18598032	180.836792	-154.3988495	-186.1086731	1.0
[Spine]
58	0	0.7457100153	0	-6.027376652	6.368215561	-84.86845398	1.0
59	0	0.7457100153	0	-6.027626038	6.780865192	-84.143013	1.0
60	0	0.7457100153	0	-6.102852821	7.099291325	-83.77418518	1.0
61	0	0.7457100153	0	-6.878858566	7.433865547	-84.02786255	1.0
[Spine1]
58	0	2.140589952	0	14.30454636	1.700654268	2.393326759	1.0
59	0	2.140589952	0	13.92792416	1.863986969	2.489911556	1.0
60	0	2.140589952	0	13.65128422	1.935958028	2.66978693	1.0
61	0	2.140589952	0	13.94476795	2.03226161	2.641224623	1.0
[Neck]
58	0	2.32246995	0	-6.051213741	11.43992424	-93.87216187	1.0
59	0	2.32246995	0	-7.375588417	11.64042473	-93.69056702	1.0
60	0	2.32246995	0	-8.872023582	11.89929867	-93.72835541	1.0
61	0	2.32246995	0	-9.985393524	11.97653198	-93.65685272	1.0
[Head]
58	0	1.409579992	0.1818799973	-5.126397133	4.625146389	-95.60240936	1.0
59	0	1.409579992	0.1818799973	-4.89085865	4.87394619	-95.33058167	1.0
60	0	1.409579992	0.1818799973	-4.541392326	5.161866188	-94.7039032	1.0
61	0	1.409579992	0.1818799973	-4.38625145	5.240293026	-94.14597321	1.0
[LeftShoulder]
58	0.3668199778	1.946700096	-0.02662999928	-15.41345215	-10.87277794	-2.856266022	1.0
59	0.3668199778	1.946700096	-0.02662999928	-14.51572609	-10.57444954	-2.966659784	1.0
60	0.3668199778	1.946700096	-0.02662999928	-14.00855064	-10.19210148	-2.981472254	1.0
61	0.3668199778	1.946700096	-0.02662999928	-13.71307755	-9.837565422	-2.68814683	1.0
[LeftArm]
58	1.140689969	0	0	28.88817596	19.06977272	-65.73609161	1.0
59	1.140689969	0	0	26.7878437	20.52679443	-64.92810822	1.0
60	1.140689969	0	0	24.37773132	21.8451004	-64.78190613	1.0
61	1.140689969	0	0	21.92420959	22.90633583	-65.13018799	1.0
[LeftForeArm]
58	2.749800205	0	0	-12.1483078	-12.8912487	-0.9880931377	1.0
59	2.749800205	0	0	-11.36375809	-10.7437706	-2.393588543	1.0
60	2.749800205	0	0	-11.17192078	-7.696485043	-3.543288469	1.0
61	2.749800205	0	0	-11.38503647	-4.655295849	-4.417323112	1.0
[LeftHand]
58	2.295179844	0	0	-12.39154434	-4.399626732	3.42325139	1.0
59	2.295179844	0	0	-11.61039639	-3.636814594	0.6752771735	1.0
60	2.295179844	0	0	-11.36793232	-2.166167974	-2.243040323	1.0
61	2.295179844	0	0	-11.55541039	-0.4049134851	-2.608504295	1.0
[RightShoulder]
58	-0.3601199985	1.946700096	-0.02662999928	-9.620615959	5.910559654	175.2999878	1.0
59	-0.3601199985	1.946700096	-0.02662999928	-10.54496574	6.317637444	175.2453461	1.0
60	-0.3601199985	1.946700096	-0.02662999928	-11.1671114	6.812156677	175.2197571	1.0
61	-0.3601199985	1.946700096	-0.02662999928	-10.97023869	7.073665619	175.5545044	1.0
[RightArm]
58	-1.140689969	0	0	57.68966293	15.45718479	-106.0657806	1.0
59	-1.140689969	0	0	58.12415314	15.54082108	-105.4685516	1.0
60	-1.140689969	0	0	58.03920364	15.08807945	-105.0356064	1.0
61	-1.140689969	0	0	57.52469635	14.49301815	-104.6636047	1.0
[RightForeArm]
58	-2.749800205	0	0	1.529119372	19.85388565	175.3742065	1.0
59	-2.749800205	0	0	0.2008108199	22.84272194	172.8985443	1.0
60	-2.749800205	0	0	-0.7577105165	24.7241478	170.8717651	1.0
61	-2.749800205	0	0	-1.947785139	25.34850883	169.806366	1.0
[RightHand]
58	-2.295179844	0	0	1.44248116	10.67692947	170.4087524	1.0
59	-2.295179844	0	0	0.6823817492	11.90442085	170.844223	1.0
60	-2.295179844	0	0	0.2846477926	13.5881319	171.930542	1.0
61	-2.295179844	0	0	-0.6251472235	14.33992863	172.258255	1.0
[LeftUpLeg]
58	0.9094099998	0	0	-17.26495361	6.452149868	93.21057892	1.0
59	0.9094099998	0	0	-15.29215908	5.350783348	93.38996887	1.0
60	0.9094099998	0	0	-14.64842701	3.245309353	93.45926666	1.0
61	0.9094099998	0	0	-13.67792606	1.063215852	93.04335785	1.0
[LeftLeg]
58	0	-4.498080254	0	15.42686558	1.435162187	85.29558563	1.0
59	0	-4.498080254	0	2.938750982	2.84265089	85.31524658	1.0
60	0	-4.498080254	0	0.7925147414	3.519213915	85.72087097	1.0
61	0	-4.498080254	0	3.558202505	8.212741852	86.56661224	1.0
[LeftFoot]
58	0	-3.729400158	0	-56.50276947	104.078949	-8.195766449	1.0
59	0	-3.729400158	0	-69.89363098	106.2060089	-25.88045883	1.0
60	0	-3.729400158	0	-47.45175934	100.8902817	-5.988503456	1.0
61	0	-3.729400158	0	-90.13830566	112.0837402	-49.21237183	1.0
[LeftToeBase]
58	0	-0.5911099911	1.364109993	0	0	0	1.0
59	0	-0.5911099911	1.364109993	0	0	0	1.0
60	0	-0.5911099911	1.364109993	0	0	0	1.0
61	0	-0.5911099911	1.364109993	0	0	0	1.0
[RightUpLeg]
58	-0.9094099998	0	0	11.67604065	-10.11245251	94.23536682	1.0
59	-0.9094099998	0	0	13.26582527	-11.18129158	94.07975006	1.0
60	-0.9094099998	0	0	15.01620865	-12.92370224	93.30102539	1.0
61	-0.9094099998	0	0	16.38726616	-13.84058571	91.90535736	1.0
[RightLeg]
58	0	-4.498080254	0	7.641693592	-5.241903305	89.46426392	1.0
59	0	-4.498080254	0	8.307411194	-4.413955688	89.34733582	1.0
60	0	-4.498080254	0	10.0054903	-4.400260925	88.56575012	1.0
61	0	-4.498080254	0	12.61525822	-2.638604403	87.60317993	1.0
[RightFoot]
58	0	-3.729400158	0	72.25294495	64.61185455	123.7464371	1.0
59	0	-3.729400158	0	73.11974335	63.33199692	125.8459091	1.0
60	0	-3.729400158	0	75.40406799	61.25891495	129.1613159	1.0
61	0	-3.729400158	0	77.66447449	58.6081543	130.9593964	1.0
[RightToeBase]
58	0	-0.5911099911	1.364109993	0	0	0	1.0
59	0	-0.5911099911	1.364109993	0	0	0	1.0
60	0	-0.5911099911	1.364109993	0	0	0	1.0
61	0	-0.5911099911	1.364109993	0	0	0	1.0
[EndOfFile]
